<svg width="171" height="29" viewBox="0 0 171 29" fill="none" xmlns="http://www.w3.org/2000/svg">
<path d="M54.376 22C54.2 22 54.056 21.944 53.944 21.832C53.832 21.72 53.776 21.576 53.776 21.4V5.8C53.776 5.624 53.832 5.48 53.944 5.368C54.056 5.256 54.2 5.2 54.376 5.2H56.56C56.8 5.2 56.976 5.256 57.088 5.368C57.2 5.48 57.272 5.568 57.304 5.632L63.712 15.64V5.8C63.712 5.624 63.768 5.48 63.88 5.368C63.992 5.256 64.128 5.2 64.288 5.2H66.736C66.912 5.2 67.056 5.256 67.168 5.368C67.28 5.48 67.336 5.624 67.336 5.8V21.4C67.336 21.56 67.28 21.704 67.168 21.832C67.056 21.944 66.912 22 66.736 22H64.528C64.288 22 64.112 21.944 64 21.832C63.904 21.704 63.832 21.616 63.784 21.568L57.4 11.872V21.4C57.4 21.576 57.344 21.72 57.232 21.832C57.12 21.944 56.976 22 56.8 22H54.376ZM76.1894 22.24C74.3494 22.24 72.8854 21.728 71.7974 20.704C70.7254 19.68 70.1574 18.192 70.0934 16.24C70.0934 16.112 70.0934 15.944 70.0934 15.736C70.0934 15.512 70.0934 15.336 70.0934 15.208C70.1574 13.976 70.4374 12.92 70.9334 12.04C71.4294 11.144 72.1254 10.464 73.0214 10C73.9174 9.52 74.9654 9.28 76.1654 9.28C77.5094 9.28 78.6294 9.56 79.5254 10.12C80.4374 10.664 81.1174 11.416 81.5654 12.376C82.0294 13.32 82.2614 14.408 82.2614 15.64V16.192C82.2614 16.352 82.1974 16.488 82.0694 16.6C81.9574 16.712 81.8214 16.768 81.6614 16.768H73.8134C73.8134 16.784 73.8134 16.816 73.8134 16.864C73.8134 16.896 73.8134 16.928 73.8134 16.96C73.8294 17.472 73.9254 17.944 74.1014 18.376C74.2934 18.792 74.5574 19.128 74.8934 19.384C75.2454 19.64 75.6614 19.768 76.1414 19.768C76.5414 19.768 76.8694 19.712 77.1254 19.6C77.3814 19.488 77.5894 19.352 77.7494 19.192C77.9254 19.032 78.0534 18.896 78.1334 18.784C78.2774 18.624 78.3894 18.528 78.4694 18.496C78.5654 18.448 78.7094 18.424 78.9014 18.424H81.3974C81.5574 18.424 81.6854 18.472 81.7814 18.568C81.8934 18.648 81.9414 18.768 81.9254 18.928C81.9094 19.184 81.7734 19.504 81.5174 19.888C81.2774 20.256 80.9174 20.624 80.4374 20.992C79.9574 21.344 79.3574 21.64 78.6374 21.88C77.9334 22.12 77.1174 22.24 76.1894 22.24ZM73.8134 14.584H78.5174V14.536C78.5174 13.96 78.4214 13.464 78.2294 13.048C78.0534 12.616 77.7894 12.28 77.4374 12.04C77.0854 11.8 76.6614 11.68 76.1654 11.68C75.6694 11.68 75.2454 11.8 74.8934 12.04C74.5414 12.28 74.2694 12.616 74.0774 13.048C73.9014 13.464 73.8134 13.96 73.8134 14.536V14.584ZM89.5804 22.24C88.5884 22.24 87.7324 22.128 87.0124 21.904C86.3084 21.664 85.7324 21.376 85.2844 21.04C84.8524 20.704 84.5244 20.368 84.3004 20.032C84.0924 19.68 83.9804 19.384 83.9644 19.144C83.9484 18.968 84.0044 18.824 84.1324 18.712C84.2604 18.6 84.3884 18.544 84.5164 18.544H86.8444C86.8924 18.544 86.9404 18.552 86.9884 18.568C87.0364 18.584 87.0844 18.624 87.1324 18.688C87.3404 18.832 87.5564 19 87.7804 19.192C88.0044 19.368 88.2604 19.52 88.5484 19.648C88.8524 19.776 89.2284 19.84 89.6764 19.84C90.2044 19.84 90.6524 19.736 91.0204 19.528C91.3884 19.304 91.5724 18.992 91.5724 18.592C91.5724 18.304 91.4844 18.064 91.3084 17.872C91.1484 17.68 90.8364 17.504 90.3724 17.344C89.9084 17.184 89.2204 17.008 88.3084 16.816C87.4444 16.624 86.7084 16.368 86.1004 16.048C85.4924 15.728 85.0364 15.328 84.7324 14.848C84.4284 14.352 84.2764 13.76 84.2764 13.072C84.2764 12.448 84.4684 11.848 84.8524 11.272C85.2524 10.696 85.8364 10.224 86.6044 9.856C87.3724 9.472 88.3324 9.28 89.4844 9.28C90.3644 9.28 91.1324 9.392 91.7884 9.616C92.4604 9.824 93.0204 10.096 93.4684 10.432C93.9164 10.752 94.2524 11.088 94.4764 11.44C94.7164 11.776 94.8444 12.072 94.8604 12.328C94.8764 12.488 94.8284 12.624 94.7164 12.736C94.6044 12.848 94.4764 12.904 94.3324 12.904H92.1964C92.1164 12.904 92.0444 12.896 91.9804 12.88C91.9164 12.848 91.8604 12.808 91.8124 12.76C91.6204 12.632 91.4204 12.488 91.2124 12.328C91.0204 12.152 90.7884 12 90.5164 11.872C90.2444 11.744 89.8924 11.68 89.4604 11.68C88.9324 11.68 88.5244 11.8 88.2364 12.04C87.9644 12.264 87.8284 12.552 87.8284 12.904C87.8284 13.128 87.9004 13.336 88.0444 13.528C88.1884 13.72 88.4844 13.896 88.9324 14.056C89.3804 14.216 90.0604 14.384 90.9724 14.56C92.0604 14.752 92.9244 15.04 93.5644 15.424C94.2044 15.808 94.6604 16.256 94.9324 16.768C95.2204 17.264 95.3644 17.8 95.3644 18.376C95.3644 19.128 95.1404 19.8 94.6924 20.392C94.2444 20.968 93.5884 21.424 92.7244 21.76C91.8764 22.08 90.8284 22.24 89.5804 22.24ZM101.34 22.24C100.492 22.24 99.7323 22.08 99.0603 21.76C98.3883 21.424 97.8523 20.976 97.4523 20.416C97.0523 19.856 96.8523 19.232 96.8523 18.544C96.8523 17.408 97.3083 16.512 98.2203 15.856C99.1483 15.2 100.364 14.752 101.868 14.512L105.012 14.056V13.624C105.012 13 104.868 12.52 104.58 12.184C104.292 11.848 103.788 11.68 103.068 11.68C102.54 11.68 102.116 11.784 101.796 11.992C101.476 12.2 101.228 12.472 101.052 12.808C100.924 13.016 100.74 13.12 100.5 13.12H98.2203C98.0443 13.12 97.9083 13.072 97.8123 12.976C97.7163 12.864 97.6763 12.736 97.6923 12.592C97.6923 12.32 97.7963 12 98.0043 11.632C98.2123 11.264 98.5323 10.904 98.9643 10.552C99.3963 10.184 99.9483 9.88 100.62 9.64C101.292 9.4 102.116 9.28 103.092 9.28C104.1 9.28 104.964 9.4 105.684 9.64C106.404 9.88 106.98 10.216 107.412 10.648C107.844 11.08 108.164 11.584 108.372 12.16C108.58 12.72 108.684 13.328 108.684 13.984V21.4C108.684 21.576 108.628 21.72 108.516 21.832C108.404 21.944 108.26 22 108.084 22H105.732C105.572 22 105.436 21.944 105.324 21.832C105.212 21.72 105.156 21.576 105.156 21.4V20.512C104.948 20.816 104.668 21.104 104.316 21.376C103.964 21.632 103.54 21.84 103.044 22C102.564 22.16 101.996 22.24 101.34 22.24ZM102.3 19.744C102.828 19.744 103.3 19.632 103.716 19.408C104.132 19.184 104.46 18.84 104.7 18.376C104.94 17.912 105.06 17.328 105.06 16.624V16.216L102.828 16.576C101.964 16.72 101.332 16.936 100.932 17.224C100.532 17.512 100.332 17.864 100.332 18.28C100.332 18.584 100.42 18.848 100.596 19.072C100.788 19.296 101.036 19.464 101.34 19.576C101.644 19.688 101.964 19.744 102.3 19.744ZM112.454 22C112.278 22 112.134 21.944 112.022 21.832C111.91 21.72 111.854 21.576 111.854 21.4V5.8C111.854 5.624 111.91 5.48 112.022 5.368C112.134 5.256 112.278 5.2 112.454 5.2H119.006C120.302 5.2 121.422 5.4 122.366 5.8C123.326 6.2 124.07 6.808 124.598 7.624C125.142 8.424 125.414 9.424 125.414 10.624C125.414 11.84 125.142 12.848 124.598 13.648C124.07 14.432 123.326 15.016 122.366 15.4C121.422 15.784 120.302 15.976 119.006 15.976H115.79V21.4C115.79 21.576 115.734 21.72 115.622 21.832C115.51 21.944 115.366 22 115.19 22H112.454ZM115.718 13H118.886C119.702 13 120.334 12.8 120.782 12.4C121.246 12 121.478 11.4 121.478 10.6C121.478 9.896 121.27 9.32 120.854 8.872C120.454 8.424 119.798 8.2 118.886 8.2H115.718V13ZM128.174 22C128.014 22 127.878 21.944 127.766 21.832C127.654 21.72 127.598 21.576 127.598 21.4V10.12C127.598 9.96 127.654 9.824 127.766 9.712C127.878 9.584 128.014 9.52 128.174 9.52H130.526C130.686 9.52 130.822 9.584 130.934 9.712C131.062 9.824 131.126 9.96 131.126 10.12V11.08C131.526 10.584 132.014 10.2 132.59 9.928C133.182 9.656 133.862 9.52 134.63 9.52H135.662C135.822 9.52 135.958 9.576 136.07 9.688C136.182 9.8 136.238 9.944 136.238 10.12V12.184C136.238 12.36 136.182 12.504 136.07 12.616C135.958 12.728 135.822 12.784 135.662 12.784H133.55C132.846 12.784 132.294 12.984 131.894 13.384C131.494 13.768 131.294 14.32 131.294 15.04V21.4C131.294 21.576 131.238 21.72 131.126 21.832C131.014 21.944 130.87 22 130.694 22H128.174ZM143.599 22.24C142.271 22.24 141.159 22.024 140.263 21.592C139.367 21.144 138.679 20.512 138.199 19.696C137.735 18.88 137.479 17.928 137.431 16.84C137.415 16.52 137.407 16.16 137.407 15.76C137.407 15.344 137.415 14.984 137.431 14.68C137.479 13.576 137.751 12.624 138.247 11.824C138.743 11.008 139.439 10.384 140.335 9.952C141.231 9.504 142.319 9.28 143.599 9.28C144.863 9.28 145.943 9.504 146.839 9.952C147.735 10.384 148.431 11.008 148.927 11.824C149.423 12.624 149.695 13.576 149.743 14.68C149.775 14.984 149.791 15.344 149.791 15.76C149.791 16.16 149.775 16.52 149.743 16.84C149.695 17.928 149.431 18.88 148.951 19.696C148.487 20.512 147.807 21.144 146.911 21.592C146.015 22.024 144.911 22.24 143.599 22.24ZM143.599 19.6C144.383 19.6 144.975 19.36 145.375 18.88C145.775 18.384 145.991 17.664 146.023 16.72C146.039 16.48 146.047 16.16 146.047 15.76C146.047 15.36 146.039 15.04 146.023 14.8C145.991 13.872 145.775 13.16 145.375 12.664C144.975 12.168 144.383 11.92 143.599 11.92C142.815 11.92 142.215 12.168 141.799 12.664C141.399 13.16 141.183 13.872 141.151 14.8C141.135 15.04 141.127 15.36 141.127 15.76C141.127 16.16 141.135 16.48 141.151 16.72C141.183 17.664 141.399 18.384 141.799 18.88C142.215 19.36 142.815 19.6 143.599 19.6ZM155.382 22C155.158 22 154.982 21.944 154.854 21.832C154.742 21.72 154.654 21.576 154.59 21.4L151.158 10.288C151.126 10.208 151.11 10.128 151.11 10.048C151.11 9.904 151.158 9.784 151.254 9.688C151.366 9.576 151.494 9.52 151.638 9.52H153.75C153.958 9.52 154.118 9.576 154.23 9.688C154.342 9.8 154.414 9.904 154.446 10L156.63 17.416L158.958 10.048C158.99 9.936 159.062 9.824 159.174 9.712C159.302 9.584 159.478 9.52 159.702 9.52H161.07C161.294 9.52 161.462 9.584 161.574 9.712C161.702 9.824 161.782 9.936 161.814 10.048L164.142 17.416L166.326 10C166.342 9.904 166.406 9.8 166.518 9.688C166.646 9.576 166.806 9.52 166.998 9.52H169.11C169.254 9.52 169.374 9.576 169.47 9.688C169.582 9.784 169.638 9.904 169.638 10.048C169.638 10.128 169.63 10.208 169.614 10.288L166.158 21.4C166.11 21.576 166.022 21.72 165.894 21.832C165.782 21.944 165.614 22 165.39 22H163.542C163.318 22 163.142 21.944 163.014 21.832C162.886 21.72 162.79 21.576 162.726 21.4L160.398 14.296L158.022 21.4C157.974 21.576 157.886 21.72 157.758 21.832C157.63 21.944 157.454 22 157.23 22H155.382Z" fill="white"/>
<g clip-path="url(#clip0_92_2084)">
<path fill-rule="evenodd" clip-rule="evenodd" d="M1.54165 9.1424C0.505918 11.7006 0.234923 14.5155 0.762973 17.2313C1.29096 19.947 2.59428 22.4416 4.50802 24.3995C6.42176 26.3574 8.86009 27.6908 11.5145 28.231C14.1691 28.7712 16.9205 28.4939 19.421 27.4343C21.9214 26.3747 24.0586 24.5802 25.5622 22.278C25.6023 22.2166 25.6419 22.1549 25.681 22.0929C25.7086 22.0492 25.736 22.0052 25.7632 21.9611V28.5H26.8158C29.5223 28.5 32.168 27.6789 34.4183 26.1405C36.6687 24.6023 38.4226 22.4157 39.4583 19.8575C40.4941 17.2994 40.7651 14.4845 40.237 11.7687C39.709 9.05301 38.4058 6.55842 36.492 4.60052C34.5782 2.64255 32.1399 1.30921 29.4855 0.769041C26.8309 0.228805 24.0795 0.506055 21.579 1.56569C19.0786 2.62533 16.9414 4.41976 15.4378 6.72202C15.3694 6.8268 15.3024 6.93249 15.2368 7.03891V0.500008H14.1842C11.4777 0.500008 8.83201 1.32111 6.58168 2.85946C4.33134 4.39774 2.57739 6.58425 1.54165 9.1424ZM13.1316 14.5V2.70289C11.213 2.88207 9.36244 3.54897 7.7513 4.65027C5.84714 5.95193 4.36308 7.8021 3.48668 9.96666C2.61028 12.1313 2.38098 14.5131 2.82776 16.8111C3.27454 19.109 4.37735 21.2198 5.99664 22.8765C7.616 24.5332 9.67918 25.6614 11.9253 26.1185C14.1714 26.5756 16.4995 26.341 18.6153 25.4444C20.6461 24.5838 22.3937 23.1504 23.6559 21.314C22.6993 21.7786 21.6293 22.0385 20.5 22.0385C16.4306 22.0385 13.1316 18.6633 13.1316 14.5ZM27.8684 26.2971V14.5C27.8684 10.3366 24.5694 6.96154 20.5 6.96154C19.3707 6.96154 18.3007 7.22144 17.3441 7.68602C18.6063 5.84959 20.3539 4.41614 22.3847 3.5556C24.5005 2.65898 26.8286 2.42439 29.0747 2.88148C31.3208 3.33856 33.384 4.46682 35.0034 6.12348C36.6227 7.78021 37.7255 9.891 38.1722 12.1889C38.619 14.4869 38.3897 16.8687 37.5133 19.0333C36.637 21.1979 35.1529 23.0481 33.2487 24.3497C31.6376 25.451 29.787 26.1179 27.8684 26.2971ZM20.3947 19.8836C17.5715 19.8269 15.2933 17.496 15.2379 14.6077H17.2291C18.7999 14.974 20.0365 16.239 20.3947 17.8461V19.8836ZM20.6052 19.8836C23.4284 19.8269 25.7067 17.496 25.7621 14.6077H23.7709C22.1999 14.974 20.9633 16.2392 20.6052 17.8465V19.8836ZM25.7621 14.3923C25.7067 11.504 23.4284 9.1731 20.6052 9.11644V11.1535C20.9633 12.7607 22.1998 14.0259 23.7706 14.3923H25.7621ZM20.3947 9.11644C17.5716 9.1731 15.2933 11.504 15.2379 14.3923H17.2294C18.8001 14.0259 20.0366 12.7609 20.3947 11.1539V9.11644Z" fill="#8046FD"/>
</g>
<defs>
<clipPath id="clip0_92_2084">
<rect width="40" height="28" fill="white" transform="translate(0.5 0.5)"/>
</clipPath>
</defs>
</svg>
