<svg width="171" height="29" viewBox="0 0 171 29" fill="none" xmlns="http://www.w3.org/2000/svg">
<path d="M53.876 22C53.7 22 53.556 21.944 53.444 21.832C53.332 21.72 53.276 21.576 53.276 21.4V5.8C53.276 5.624 53.332 5.48 53.444 5.368C53.556 5.256 53.7 5.2 53.876 5.2H56.06C56.3 5.2 56.476 5.256 56.588 5.368C56.7 5.48 56.772 5.568 56.804 5.632L63.212 15.64V5.8C63.212 5.624 63.268 5.48 63.38 5.368C63.492 5.256 63.628 5.2 63.788 5.2H66.236C66.412 5.2 66.556 5.256 66.668 5.368C66.78 5.48 66.836 5.624 66.836 5.8V21.4C66.836 21.56 66.78 21.704 66.668 21.832C66.556 21.944 66.412 22 66.236 22H64.028C63.788 22 63.612 21.944 63.5 21.832C63.404 21.704 63.332 21.616 63.284 21.568L56.9 11.872V21.4C56.9 21.576 56.844 21.72 56.732 21.832C56.62 21.944 56.476 22 56.3 22H53.876ZM75.6894 22.24C73.8494 22.24 72.3854 21.728 71.2974 20.704C70.2254 19.68 69.6574 18.192 69.5934 16.24C69.5934 16.112 69.5934 15.944 69.5934 15.736C69.5934 15.512 69.5934 15.336 69.5934 15.208C69.6574 13.976 69.9374 12.92 70.4334 12.04C70.9294 11.144 71.6254 10.464 72.5214 10C73.4174 9.52 74.4654 9.28 75.6654 9.28C77.0094 9.28 78.1294 9.56 79.0254 10.12C79.9374 10.664 80.6174 11.416 81.0654 12.376C81.5294 13.32 81.7614 14.408 81.7614 15.64V16.192C81.7614 16.352 81.6974 16.488 81.5694 16.6C81.4574 16.712 81.3214 16.768 81.1614 16.768H73.3134C73.3134 16.784 73.3134 16.816 73.3134 16.864C73.3134 16.896 73.3134 16.928 73.3134 16.96C73.3294 17.472 73.4254 17.944 73.6014 18.376C73.7934 18.792 74.0574 19.128 74.3934 19.384C74.7454 19.64 75.1614 19.768 75.6414 19.768C76.0414 19.768 76.3694 19.712 76.6254 19.6C76.8814 19.488 77.0894 19.352 77.2494 19.192C77.4254 19.032 77.5534 18.896 77.6334 18.784C77.7774 18.624 77.8894 18.528 77.9694 18.496C78.0654 18.448 78.2094 18.424 78.4014 18.424H80.8974C81.0574 18.424 81.1854 18.472 81.2814 18.568C81.3934 18.648 81.4414 18.768 81.4254 18.928C81.4094 19.184 81.2734 19.504 81.0174 19.888C80.7774 20.256 80.4174 20.624 79.9374 20.992C79.4574 21.344 78.8574 21.64 78.1374 21.88C77.4334 22.12 76.6174 22.24 75.6894 22.24ZM73.3134 14.584H78.0174V14.536C78.0174 13.96 77.9214 13.464 77.7294 13.048C77.5534 12.616 77.2894 12.28 76.9374 12.04C76.5854 11.8 76.1614 11.68 75.6654 11.68C75.1694 11.68 74.7454 11.8 74.3934 12.04C74.0414 12.28 73.7694 12.616 73.5774 13.048C73.4014 13.464 73.3134 13.96 73.3134 14.536V14.584ZM89.0804 22.24C88.0884 22.24 87.2324 22.128 86.5124 21.904C85.8084 21.664 85.2324 21.376 84.7844 21.04C84.3524 20.704 84.0244 20.368 83.8004 20.032C83.5924 19.68 83.4804 19.384 83.4644 19.144C83.4484 18.968 83.5044 18.824 83.6324 18.712C83.7604 18.6 83.8884 18.544 84.0164 18.544H86.3444C86.3924 18.544 86.4404 18.552 86.4884 18.568C86.5364 18.584 86.5844 18.624 86.6324 18.688C86.8404 18.832 87.0564 19 87.2804 19.192C87.5044 19.368 87.7604 19.52 88.0484 19.648C88.3524 19.776 88.7284 19.84 89.1764 19.84C89.7044 19.84 90.1524 19.736 90.5204 19.528C90.8884 19.304 91.0724 18.992 91.0724 18.592C91.0724 18.304 90.9844 18.064 90.8084 17.872C90.6484 17.68 90.3364 17.504 89.8724 17.344C89.4084 17.184 88.7204 17.008 87.8084 16.816C86.9444 16.624 86.2084 16.368 85.6004 16.048C84.9924 15.728 84.5364 15.328 84.2324 14.848C83.9284 14.352 83.7764 13.76 83.7764 13.072C83.7764 12.448 83.9684 11.848 84.3524 11.272C84.7524 10.696 85.3364 10.224 86.1044 9.856C86.8724 9.472 87.8324 9.28 88.9844 9.28C89.8644 9.28 90.6324 9.392 91.2884 9.616C91.9604 9.824 92.5204 10.096 92.9684 10.432C93.4164 10.752 93.7524 11.088 93.9764 11.44C94.2164 11.776 94.3444 12.072 94.3604 12.328C94.3764 12.488 94.3284 12.624 94.2164 12.736C94.1044 12.848 93.9764 12.904 93.8324 12.904H91.6964C91.6164 12.904 91.5444 12.896 91.4804 12.88C91.4164 12.848 91.3604 12.808 91.3124 12.76C91.1204 12.632 90.9204 12.488 90.7124 12.328C90.5204 12.152 90.2884 12 90.0164 11.872C89.7444 11.744 89.3924 11.68 88.9604 11.68C88.4324 11.68 88.0244 11.8 87.7364 12.04C87.4644 12.264 87.3284 12.552 87.3284 12.904C87.3284 13.128 87.4004 13.336 87.5444 13.528C87.6884 13.72 87.9844 13.896 88.4324 14.056C88.8804 14.216 89.5604 14.384 90.4724 14.56C91.5604 14.752 92.4244 15.04 93.0644 15.424C93.7044 15.808 94.1604 16.256 94.4324 16.768C94.7204 17.264 94.8644 17.8 94.8644 18.376C94.8644 19.128 94.6404 19.8 94.1924 20.392C93.7444 20.968 93.0884 21.424 92.2244 21.76C91.3764 22.08 90.3284 22.24 89.0804 22.24ZM100.84 22.24C99.9923 22.24 99.2323 22.08 98.5603 21.76C97.8883 21.424 97.3523 20.976 96.9523 20.416C96.5523 19.856 96.3523 19.232 96.3523 18.544C96.3523 17.408 96.8083 16.512 97.7203 15.856C98.6483 15.2 99.8643 14.752 101.368 14.512L104.512 14.056V13.624C104.512 13 104.368 12.52 104.08 12.184C103.792 11.848 103.288 11.68 102.568 11.68C102.04 11.68 101.616 11.784 101.296 11.992C100.976 12.2 100.728 12.472 100.552 12.808C100.424 13.016 100.24 13.12 100 13.12H97.7203C97.5443 13.12 97.4083 13.072 97.3123 12.976C97.2163 12.864 97.1763 12.736 97.1923 12.592C97.1923 12.32 97.2963 12 97.5043 11.632C97.7123 11.264 98.0323 10.904 98.4643 10.552C98.8963 10.184 99.4483 9.88 100.12 9.64C100.792 9.4 101.616 9.28 102.592 9.28C103.6 9.28 104.464 9.4 105.184 9.64C105.904 9.88 106.48 10.216 106.912 10.648C107.344 11.08 107.664 11.584 107.872 12.16C108.08 12.72 108.184 13.328 108.184 13.984V21.4C108.184 21.576 108.128 21.72 108.016 21.832C107.904 21.944 107.76 22 107.584 22H105.232C105.072 22 104.936 21.944 104.824 21.832C104.712 21.72 104.656 21.576 104.656 21.4V20.512C104.448 20.816 104.168 21.104 103.816 21.376C103.464 21.632 103.04 21.84 102.544 22C102.064 22.16 101.496 22.24 100.84 22.24ZM101.8 19.744C102.328 19.744 102.8 19.632 103.216 19.408C103.632 19.184 103.96 18.84 104.2 18.376C104.44 17.912 104.56 17.328 104.56 16.624V16.216L102.328 16.576C101.464 16.72 100.832 16.936 100.432 17.224C100.032 17.512 99.8323 17.864 99.8323 18.28C99.8323 18.584 99.9203 18.848 100.096 19.072C100.288 19.296 100.536 19.464 100.84 19.576C101.144 19.688 101.464 19.744 101.8 19.744ZM111.954 22C111.778 22 111.634 21.944 111.522 21.832C111.41 21.72 111.354 21.576 111.354 21.4V5.8C111.354 5.624 111.41 5.48 111.522 5.368C111.634 5.256 111.778 5.2 111.954 5.2H118.506C119.802 5.2 120.922 5.4 121.866 5.8C122.826 6.2 123.57 6.808 124.098 7.624C124.642 8.424 124.914 9.424 124.914 10.624C124.914 11.84 124.642 12.848 124.098 13.648C123.57 14.432 122.826 15.016 121.866 15.4C120.922 15.784 119.802 15.976 118.506 15.976H115.29V21.4C115.29 21.576 115.234 21.72 115.122 21.832C115.01 21.944 114.866 22 114.69 22H111.954ZM115.218 13H118.386C119.202 13 119.834 12.8 120.282 12.4C120.746 12 120.978 11.4 120.978 10.6C120.978 9.896 120.77 9.32 120.354 8.872C119.954 8.424 119.298 8.2 118.386 8.2H115.218V13ZM127.674 22C127.514 22 127.378 21.944 127.266 21.832C127.154 21.72 127.098 21.576 127.098 21.4V10.12C127.098 9.96 127.154 9.824 127.266 9.712C127.378 9.584 127.514 9.52 127.674 9.52H130.026C130.186 9.52 130.322 9.584 130.434 9.712C130.562 9.824 130.626 9.96 130.626 10.12V11.08C131.026 10.584 131.514 10.2 132.09 9.928C132.682 9.656 133.362 9.52 134.13 9.52H135.162C135.322 9.52 135.458 9.576 135.57 9.688C135.682 9.8 135.738 9.944 135.738 10.12V12.184C135.738 12.36 135.682 12.504 135.57 12.616C135.458 12.728 135.322 12.784 135.162 12.784H133.05C132.346 12.784 131.794 12.984 131.394 13.384C130.994 13.768 130.794 14.32 130.794 15.04V21.4C130.794 21.576 130.738 21.72 130.626 21.832C130.514 21.944 130.37 22 130.194 22H127.674ZM143.099 22.24C141.771 22.24 140.659 22.024 139.763 21.592C138.867 21.144 138.179 20.512 137.699 19.696C137.235 18.88 136.979 17.928 136.931 16.84C136.915 16.52 136.907 16.16 136.907 15.76C136.907 15.344 136.915 14.984 136.931 14.68C136.979 13.576 137.251 12.624 137.747 11.824C138.243 11.008 138.939 10.384 139.835 9.952C140.731 9.504 141.819 9.28 143.099 9.28C144.363 9.28 145.443 9.504 146.339 9.952C147.235 10.384 147.931 11.008 148.427 11.824C148.923 12.624 149.195 13.576 149.243 14.68C149.275 14.984 149.291 15.344 149.291 15.76C149.291 16.16 149.275 16.52 149.243 16.84C149.195 17.928 148.931 18.88 148.451 19.696C147.987 20.512 147.307 21.144 146.411 21.592C145.515 22.024 144.411 22.24 143.099 22.24ZM143.099 19.6C143.883 19.6 144.475 19.36 144.875 18.88C145.275 18.384 145.491 17.664 145.523 16.72C145.539 16.48 145.547 16.16 145.547 15.76C145.547 15.36 145.539 15.04 145.523 14.8C145.491 13.872 145.275 13.16 144.875 12.664C144.475 12.168 143.883 11.92 143.099 11.92C142.315 11.92 141.715 12.168 141.299 12.664C140.899 13.16 140.683 13.872 140.651 14.8C140.635 15.04 140.627 15.36 140.627 15.76C140.627 16.16 140.635 16.48 140.651 16.72C140.683 17.664 140.899 18.384 141.299 18.88C141.715 19.36 142.315 19.6 143.099 19.6ZM154.882 22C154.658 22 154.482 21.944 154.354 21.832C154.242 21.72 154.154 21.576 154.09 21.4L150.658 10.288C150.626 10.208 150.61 10.128 150.61 10.048C150.61 9.904 150.658 9.784 150.754 9.688C150.866 9.576 150.994 9.52 151.138 9.52H153.25C153.458 9.52 153.618 9.576 153.73 9.688C153.842 9.8 153.914 9.904 153.946 10L156.13 17.416L158.458 10.048C158.49 9.936 158.562 9.824 158.674 9.712C158.802 9.584 158.978 9.52 159.202 9.52H160.57C160.794 9.52 160.962 9.584 161.074 9.712C161.202 9.824 161.282 9.936 161.314 10.048L163.642 17.416L165.826 10C165.842 9.904 165.906 9.8 166.018 9.688C166.146 9.576 166.306 9.52 166.498 9.52H168.61C168.754 9.52 168.874 9.576 168.97 9.688C169.082 9.784 169.138 9.904 169.138 10.048C169.138 10.128 169.13 10.208 169.114 10.288L165.658 21.4C165.61 21.576 165.522 21.72 165.394 21.832C165.282 21.944 165.114 22 164.89 22H163.042C162.818 22 162.642 21.944 162.514 21.832C162.386 21.72 162.29 21.576 162.226 21.4L159.898 14.296L157.522 21.4C157.474 21.576 157.386 21.72 157.258 21.832C157.13 21.944 156.954 22 156.73 22H154.882Z" fill="black"/>
<g clip-path="url(#clip0_97_2089)">
<path fill-rule="evenodd" clip-rule="evenodd" d="M1.04165 9.1424C0.00591838 11.7006 -0.265077 14.5155 0.262973 17.2313C0.790959 19.947 2.09428 22.4416 4.00802 24.3995C5.92176 26.3574 8.36009 27.6908 11.0145 28.231C13.6691 28.7712 16.4205 28.4939 18.921 27.4343C21.4214 26.3747 23.5586 24.5802 25.0622 22.278C25.1023 22.2166 25.1419 22.1549 25.181 22.0929C25.2086 22.0492 25.236 22.0052 25.2632 21.9611V28.5H26.3158C29.0223 28.5 31.668 27.6789 33.9183 26.1405C36.1687 24.6023 37.9226 22.4157 38.9583 19.8575C39.9941 17.2994 40.2651 14.4845 39.737 11.7687C39.209 9.05301 37.9058 6.55842 35.992 4.60052C34.0782 2.64255 31.6399 1.30921 28.9855 0.769041C26.3309 0.228805 23.5795 0.506055 21.079 1.56569C18.5786 2.62533 16.4414 4.41976 14.9378 6.72202C14.8694 6.8268 14.8024 6.93249 14.7368 7.03891V0.500008H13.6842C10.9777 0.500008 8.33201 1.32111 6.08168 2.85946C3.83134 4.39774 2.07739 6.58425 1.04165 9.1424ZM12.6316 14.5V2.70289C10.713 2.88207 8.86244 3.54897 7.2513 4.65027C5.34714 5.95193 3.86308 7.8021 2.98668 9.96666C2.11028 12.1313 1.88098 14.5131 2.32776 16.8111C2.77454 19.109 3.87735 21.2198 5.49664 22.8765C7.116 24.5332 9.17918 25.6614 11.4253 26.1185C13.6714 26.5756 15.9995 26.341 18.1153 25.4444C20.1461 24.5838 21.8937 23.1504 23.1559 21.314C22.1993 21.7786 21.1293 22.0385 20 22.0385C15.9306 22.0385 12.6316 18.6633 12.6316 14.5ZM27.3684 26.2971V14.5C27.3684 10.3366 24.0694 6.96154 20 6.96154C18.8707 6.96154 17.8007 7.22144 16.8441 7.68602C18.1063 5.84959 19.8539 4.41614 21.8847 3.5556C24.0005 2.65898 26.3286 2.42439 28.5747 2.88148C30.8208 3.33856 32.884 4.46682 34.5034 6.12348C36.1227 7.78021 37.2255 9.891 37.6722 12.1889C38.119 14.4869 37.8897 16.8687 37.0133 19.0333C36.137 21.1979 34.6529 23.0481 32.7487 24.3497C31.1376 25.451 29.287 26.1179 27.3684 26.2971ZM19.8947 19.8836C17.0715 19.8269 14.7933 17.496 14.7379 14.6077H16.7291C18.2999 14.974 19.5365 16.239 19.8947 17.8461V19.8836ZM20.1052 19.8836C22.9284 19.8269 25.2067 17.496 25.2621 14.6077H23.2709C21.6999 14.974 20.4633 16.2392 20.1052 17.8465V19.8836ZM25.2621 14.3923C25.2067 11.504 22.9284 9.1731 20.1052 9.11644V11.1535C20.4633 12.7607 21.6998 14.0259 23.2706 14.3923H25.2621ZM19.8947 9.11644C17.0716 9.1731 14.7933 11.504 14.7379 14.3923H16.7294C18.3001 14.0259 19.5366 12.7609 19.8947 11.1539V9.11644Z" fill="#8046FD"/>
</g>
<defs>
<clipPath id="clip0_97_2089">
<rect width="40" height="28" fill="white" transform="translate(0 0.5)"/>
</clipPath>
</defs>
</svg>
